<svg xmlns="http://www.w3.org/2000/svg" width="22" height="22" viewBox="0 0 22 22">
  <g id="noun-rejected-5440457" transform="translate(-1 -1)">
    <g id="Group_3721" data-name="Group 3721">
      <path id="Path_4038" data-name="Path 4038" d="M12,1.25A10.75,10.75,0,1,1,1.25,12,10.755,10.755,0,0,1,12,1.25Zm0,1.5A9.25,9.25,0,1,0,21.25,12,9.255,9.255,0,0,0,12,2.75Z" fill="#df6161" stroke="#df6161" stroke-width="0.5" fill-rule="evenodd"/>
      <path id="Path_4039" data-name="Path 4039" d="M9.03,16.03a.75.75,0,1,1-1.06-1.06l7-7a.75.75,0,0,1,1.06,1.06l-7,7Z" fill="#df6161" stroke="#df6161" stroke-width="0.5" fill-rule="evenodd"/>
      <path id="Path_4040" data-name="Path 4040" d="M16.03,14.97a.75.75,0,1,1-1.06,1.06l-7-7A.75.75,0,0,1,9.03,7.97l7,7Z" fill="#df6161" stroke="#df6161" stroke-width="0.5" fill-rule="evenodd"/>
    </g>
  </g>
</svg>
